<svg xmlns:xlink="http://www.w3.org/1999/xlink" xmlns="http://www.w3.org/2000/svg" viewBox="0 0 1200 550" width="1200" height="550" style="width: 100%; height: 100%; transform: translate3d(0px, 0px, 0px);" preserveAspectRatio="xMidYMid meet"><defs><clipPath id="__lottie_element_2"><rect width="1200" height="550" x="0" y="0"></rect></clipPath><clipPath id="__lottie_element_4"><path d="M0,0 L1920,0 L1920,1080 L0,1080z"></path></clipPath></defs><g clip-path="url(#__lottie_element_2)"><g clip-path="url(#__lottie_element_4)" style="display: block;" transform="matrix(1,0,0,1,-360,-267)" opacity="1"><g style="display: block;" transform="matrix(1,0,0,1,411,298)" opacity="1"><g opacity="1" transform="matrix(1,0,0,1,546.7839965820312,240.88299560546875)"><path fill="#20FF64" fill-opacity="1" d=" M411.02301025390625,29.81800079345703 C411.02301025390625,29.81800079345703 411.02301025390625,102.37000274658203 411.02301025390625,102.37000274658203 C411.02301025390625,102.37000274658203 368.70098876953125,102.37000274658203 368.70098876953125,102.37000274658203 C368.70098876953125,102.37000274658203 368.70098876953125,28.993999481201172 368.70098876953125,28.993999481201172 C368.70098876953125,13.329999923706055 358.5329895019531,2.884999990463257 343.6929931640625,2.884999990463257 C328.8529968261719,2.884999990463257 318.9599914550781,13.329999923706055 318.9599914550781,28.993999481201172 C318.9599914550781,28.993999481201172 318.9599914550781,102.37000274658203 318.9599914550781,102.37000274658203 C318.9599914550781,102.37000274658203 276.635986328125,102.37000274658203 276.635986328125,102.37000274658203 C276.635986328125,102.37000274658203 276.635986328125,28.993999481201172 276.635986328125,28.993999481201172 C276.635986328125,13.329999923706055 266.7439880371094,2.884999990463257 251.9040069580078,2.884999990463257 C237.06399536132812,2.884999990463257 226.89500427246094,13.329999923706055 226.89500427246094,28.993999481201172 C226.89500427246094,28.993999481201172 226.89500427246094,102.37000274658203 226.89500427246094,102.37000274658203 C226.89500427246094,102.37000274658203 184.5709991455078,102.37000274658203 184.5709991455078,102.37000274658203 C184.5709991455078,102.37000274658203 184.5709991455078,29.81800079345703 184.5709991455078,29.81800079345703 C184.5709991455078,-9.482000350952148 211.7790069580078,-37.7869987487793 249.42999267578125,-37.7869987487793 C269.4930114746094,-37.7869987487793 286.2539978027344,-29.54199981689453 297.7969970703125,-16.07699966430664 C309.34100341796875,-29.54199981689453 326.10400390625,-37.7869987487793 346.1669921875,-37.7869987487793 C383.8160095214844,-37.7869987487793 411.02301025390625,-9.482000350952148 411.02301025390625,29.81800079345703z"></path></g></g><g style="display: block;" transform="matrix(1,0,0,1,411,298)" opacity="1"><g opacity="1" transform="matrix(1,0,0,1,546.7839965820312,240.88299560546875)"><path fill="#20FF64" fill-opacity="1" d=" M176.21099853515625,-35.314998626708984 C176.21099853515625,-35.314998626708984 176.21099853515625,0.9620000123977661 176.21099853515625,0.9620000123977661 C176.21099853515625,0.9620000123977661 139.38499450683594,0.9620000123977661 139.38499450683594,0.9620000123977661 C139.38499450683594,0.9620000123977661 139.38499450683594,102.37000274658203 139.38499450683594,102.37000274658203 C139.38499450683594,102.37000274658203 97.06199645996094,102.37000274658203 97.06199645996094,102.37000274658203 C97.06199645996094,102.37000274658203 97.06199645996094,-35.314998626708984 97.06199645996094,-35.314998626708984 C97.06199645996094,-35.314998626708984 176.21099853515625,-35.314998626708984 176.21099853515625,-35.314998626708984z"></path></g></g><g style="display: block;" transform="matrix(1,0,0,1,411,298)" opacity="1"><g opacity="1" transform="matrix(1,0,0,1,546.7839965820312,240.88299560546875)"><path fill="#20FF64" fill-opacity="1" d=" M-92.47899627685547,-61.14699935913086 C-102.0979995727539,-61.14699935913086 -107.59400177001953,-55.6510009765625 -107.59400177001953,-46.03300094604492 C-107.59400177001953,-46.03300094604492 -107.59400177001953,-35.314998626708984 -107.59400177001953,-35.314998626708984 C-107.59400177001953,-35.314998626708984 -67.19499969482422,-35.314998626708984 -67.19499969482422,-35.314998626708984 C-67.19499969482422,-35.314998626708984 -67.19499969482422,0.9620000123977661 -67.19499969482422,0.9620000123977661 C-67.19499969482422,0.9620000123977661 -107.59400177001953,0.9620000123977661 -107.59400177001953,0.9620000123977661 C-107.59400177001953,0.9620000123977661 -107.59400177001953,48.23099899291992 -107.59400177001953,48.23099899291992 C-107.59400177001953,83.68299865722656 -126.83200073242188,102.37000274658203 -161.73399353027344,102.37000274658203 C-161.73399353027344,102.37000274658203 -190.86500549316406,102.37000274658203 -190.86500549316406,102.37000274658203 C-190.86500549316406,102.37000274658203 -190.86500549316406,63.895999908447266 -190.86500549316406,63.895999908447266 C-190.86500549316406,63.895999908447266 -164.7570037841797,63.895999908447266 -164.7570037841797,63.895999908447266 C-155.13900756835938,63.895999908447266 -149.64300537109375,58.39699935913086 -149.64300537109375,48.77899932861328 C-149.64300537109375,48.77899932861328 -149.64300537109375,0.9620000123977661 -149.64300537109375,0.9620000123977661 C-149.64300537109375,0.9620000123977661 -185.3699951171875,0.9620000123977661 -185.3699951171875,0.9620000123977661 C-185.3699951171875,0.9620000123977661 -185.3699951171875,-35.314998626708984 -185.3699951171875,-35.314998626708984 C-185.3699951171875,-35.314998626708984 -149.64300537109375,-35.314998626708984 -149.64300537109375,-35.314998626708984 C-149.64300537109375,-35.314998626708984 -149.64300537109375,-45.481998443603516 -149.64300537109375,-45.481998443603516 C-149.64300537109375,-80.93399810791016 -130.40499877929688,-99.62300109863281 -95.50299835205078,-99.62300109863281 C-95.50299835205078,-99.62300109863281 -66.37200164794922,-99.62300109863281 -66.37200164794922,-99.62300109863281 C-66.37200164794922,-99.62300109863281 -66.37200164794922,-61.14699935913086 -66.37200164794922,-61.14699935913086 C-66.37200164794922,-61.14699935913086 -92.47899627685547,-61.14699935913086 -92.47899627685547,-61.14699935913086z"></path></g></g><g style="display: block;" transform="matrix(1,0,0,1,411,298)" opacity="1"><g opacity="1" transform="matrix(1,0,0,1,546.7839965820312,240.88299560546875)"><path fill="#20FF64" fill-opacity="1" d=" M-346.43701171875,102.37000274658203 C-346.43701171875,102.37000274658203 -346.43701171875,32.29199981689453 -346.43701171875,32.29199981689453 C-346.43701171875,-7.833000183105469 -316.20599365234375,-37.7869987487793 -276.0830078125,-37.7869987487793 C-236.23399353027344,-37.7869987487793 -206.552001953125,-7.833000183105469 -206.552001953125,32.29199981689453 C-206.552001953125,32.29199981689453 -206.552001953125,102.37000274658203 -206.552001953125,102.37000274658203 C-206.552001953125,102.37000274658203 -248.875,102.37000274658203 -248.875,102.37000274658203 C-248.875,102.37000274658203 -248.875,31.742000579833984 -248.875,31.742000579833984 C-248.875,14.428000450134277 -259.8680114746094,2.884999990463257 -276.0830078125,2.884999990463257 C-292.84600830078125,2.884999990463257 -304.114013671875,14.428000450134277 -304.114013671875,31.742000579833984 C-304.114013671875,31.742000579833984 -304.114013671875,102.37000274658203 -304.114013671875,102.37000274658203 C-304.114013671875,102.37000274658203 -346.43701171875,102.37000274658203 -346.43701171875,102.37000274658203z"></path></g></g><g style="display: block;" transform="matrix(1,0,0,1,411,298)" opacity="1"><g opacity="1" transform="matrix(1,0,0,1,546.7839965820312,240.88299560546875)"><path fill="#20FF64" fill-opacity="1" d=" M-406.62701416015625,-35.314998626708984 C-406.62701416015625,-35.314998626708984 -364.5799865722656,-35.314998626708984 -364.5799865722656,-35.314998626708984 C-364.5799865722656,-35.314998626708984 -364.5799865722656,102.37000274658203 -364.5799865722656,102.37000274658203 C-364.5799865722656,102.37000274658203 -406.62701416015625,102.37000274658203 -406.62701416015625,102.37000274658203 C-406.62701416015625,102.37000274658203 -406.62701416015625,-35.314998626708984 -406.62701416015625,-35.314998626708984z"></path></g></g><g style="display: block;" transform="matrix(1,0,0,1,411,298)" opacity="1"><g opacity="1" transform="matrix(1,0,0,1,546.7839965820312,240.88299560546875)"><path fill="#20FF64" fill-opacity="1" d=" M-411.02301025390625,-77.08699798583984 C-411.02301025390625,-91.10299682617188 -399.7560119628906,-102.37000274658203 -385.739990234375,-102.37000274658203 C-371.7239990234375,-102.37000274658203 -360.45599365234375,-91.10299682617188 -360.45599365234375,-77.08699798583984 C-360.45599365234375,-62.52199935913086 -371.7239990234375,-51.25299835205078 -385.739990234375,-51.25299835205078 C-399.7560119628906,-51.25299835205078 -411.02301025390625,-62.52199935913086 -411.02301025390625,-77.08699798583984z M-406.62701416015625,102.37000274658203"></path></g></g><g style="display: block;" transform="matrix(0.997480034828186,0.0009600208722986281,0.0009600208722986281,0.997480034828186,416.1361083984375,298.6066589355469)" opacity="1"><g opacity="1" transform="matrix(1,0,0,1,555.5599975585938,273.17401123046875)"><path fill="#20FF64" fill-opacity="1" d=" M70.0790023803711,3.0220000743865967 C70.0790023803711,3.0220000743865967 70.0790023803711,70.0790023803711 70.0790023803711,70.0790023803711 C70.0790023803711,70.0790023803711 3.0220000743865967,70.0790023803711 3.0220000743865967,70.0790023803711 C-37.375,70.0790023803711 -70.0790023803711,37.375999450683594 -70.0790023803711,-3.0250000953674316 C-70.0790023803711,-21.711000442504883 -62.659000396728516,-38.20199966430664 -50.29100036621094,-50.29199981689453 C-38.20000076293945,-62.65999984741211 -21.711000442504883,-70.0790023803711 -3.0239999294281006,-70.0790023803711 C37.099998474121094,-70.0790023803711 70.0790023803711,-37.375999450683594 70.0790023803711,3.0220000743865967z"></path></g></g><g style="display: block;" transform="matrix(0.997480034828186,0.0009600208722986281,0.0009600208722986281,0.997480034828186,416.1361083984375,298.6066589355469)" opacity="1"><g opacity="1" transform="matrix(1,0,0,1,557.3460083007812,274.9599914550781)"><path fill="#11312A" fill-opacity="1" d=" M28.44300079345703,1.2359999418258667 C28.44300079345703,-14.977999687194824 15.527000427246094,-28.44300079345703 -1.2359999418258667,-28.44300079345703 C-1.2359999418258667,-28.44300079345703 -28.44300079345703,-28.44300079345703 -28.44300079345703,-28.44300079345703 C-28.44300079345703,-28.44300079345703 -28.44300079345703,-1.2359999418258667 -28.44300079345703,-1.2359999418258667 C-28.44300079345703,15.527999877929688 -14.97700023651123,28.444000244140625 1.2359999418258667,28.444000244140625 C1.2359999418258667,28.444000244140625 28.44300079345703,28.444000244140625 28.44300079345703,28.444000244140625 C28.44300079345703,28.444000244140625 28.44300079345703,1.2359999418258667 28.44300079345703,1.2359999418258667z"></path></g></g></g></g></svg>