<svg xmlns:xlink="http://www.w3.org/1999/xlink" xmlns="http://www.w3.org/2000/svg" viewBox="0 0 558.4 170.8" width="1000"  height="305.8739255014327" ><g id="b3a7dc70-d04e-4ad8-969a-bb8694e8a02a" data-name="Layer 2"><g id="e9275bf8-d642-4552-89e9-7dcd430a1dfd" data-name="Layer 1"><polygon points="153.8 43.5 163 43.5 163 11.2 175.7 11.2 175.7 3.7 141.1 3.7 141.1 11.2 153.8 11.2 153.8 43.5" style="" fill="#54584D"></polygon><polygon points="195.5 27.2 213.5 27.2 213.5 43.5 222.7 43.5 222.7 3.7 213.5 3.7 213.5 19.4 195.5 19.4 195.5 3.7 186.3 3.7 186.3 43.5 195.5 43.5 195.5 27.2" style="" fill="#54584D"></polygon><polygon points="268.5 36.1 246.9 36.1 246.9 26.9 265.3 26.9 265.3 19.7 246.9 19.7 246.9 11.1 267.8 11.1 267.8 3.7 237.8 3.7 237.8 43.5 268.5 43.5 268.5 36.1" style="" fill="#54584D"></polygon><path d="M145.6,65.4v39.8h9.2v-11h8c10.6,0,17.2-5.5,17.2-14.4s-6.6-14.5-17.2-14.5H145.6Zm25.1,14.4c0,4.3-2.8,6.9-8.5,6.9h-7.5V72.9h7.5C167.9,72.9,170.7,75.4,170.7,79.8Z" style="" fill="#54584D"></path><path d="M212,64.7c-12.5,0-21.7,8.8-21.7,20.6s9.2,20.6,21.7,20.6,21.7-8.7,21.7-20.6S224.4,64.7,212,64.7ZM212,98c-7.1,0-12.4-5.2-12.4-12.8s5.3-12.8,12.4-12.8,12.4,5.2,12.4,12.8S219.1,98,212,98Z" style="" fill="#54584D"></path><path d="M280.7,79.8c0-8.9-6.6-14.5-17.2-14.5H246.3v39.8h9.2v-11H264l7.7,11.1h9.9l-8.9-12.8C277.7,90.2,280.7,85.8,280.7,79.8Zm-17.7,7h-7.5V72.9H263c5.6,0,8.5,2.6,8.5,6.9S268.6,86.8,263,86.8Z" style="" fill="#54584D"></path><polygon points="288.6 72.9 301.3 72.9 301.3 105.2 310.5 105.2 310.5 72.9 323.2 72.9 323.2 65.4 288.6 65.4 288.6 72.9" style="" fill="#54584D"></polygon><polygon points="333.8 105.2 343 105.2 343 90.7 361.4 90.7 361.4 83.3 343 83.3 343 72.8 363.8 72.8 363.8 65.4 333.8 65.4 333.8 105.2" style="" fill="#54584D"></polygon><path d="M394.5,64.7c-12.5,0-21.7,8.8-21.7,20.6s9.2,20.6,21.7,20.6,21.7-8.7,21.7-20.6S407,64.7,394.5,64.7Zm0,33.3c-7.1,0-12.4-5.2-12.4-12.8s5.3-12.8,12.4-12.8,12.4,5.2,12.4,12.8S401.6,98,394.5,98Z" style="" fill="#54584D"></path><polygon points="457.9 97.7 438 97.7 438 65.4 428.8 65.4 428.8 105.2 457.9 105.2 457.9 97.7" style="" fill="#54584D"></polygon><rect x="468.8" y="65.4" width="9.2" height="39.9" style="" fill="#54584D"></rect><path d="M512.3,105.9c12.5,0,21.7-8.7,21.7-20.6s-9.2-20.6-21.7-20.6-21.7,8.8-21.7,20.6S499.7,105.9,512.3,105.9Zm0-33.4c7.1,0,12.4,5.2,12.4,12.8S519.4,98,512.3,98s-12.4-5.2-12.4-12.8S505.2,72.5,512.3,72.5Z" style="" fill="#54584D"></path><path d="M165.1,134.3a12.75,12.75,0,0,1,10,4.7l5.9-5.5c-3.7-4.6-9.5-7.1-16.3-7.1-12.4,0-21.5,8.6-21.5,20.6s9.2,20.6,21.5,20.6c6.9,0,12.6-2.5,16.4-7.1l-5.9-5.5a12.75,12.75,0,0,1-10,4.7c-7.4,0-12.7-5.2-12.7-12.8C152.4,139.5,157.6,134.3,165.1,134.3Z" style="" fill="#54584D"></path><path d="M211.2,126.4c-12.5,0-21.7,8.8-21.7,20.6s9.2,20.6,21.7,20.6,21.7-8.7,21.7-20.6S223.7,126.4,211.2,126.4Zm0,33.4c-7.1,0-12.4-5.2-12.4-12.8s5.3-12.8,12.4-12.8,12.4,5.2,12.4,12.8S218.3,159.8,211.2,159.8Z" style="" fill="#54584D"></path><polygon points="254.7 127.1 245.5 127.1 245.5 166.9 274.6 166.9 274.6 159.4 254.7 159.4 254.7 127.1" style="" fill="#54584D"></polygon><polygon points="294.6 127.1 285.4 127.1 285.4 166.9 314.5 166.9 314.5 159.4 294.6 159.4 294.6 127.1" style="" fill="#54584D"></polygon><polygon points="334.5 150.3 352.9 150.3 352.9 143.1 334.5 143.1 334.5 134.5 355.3 134.5 355.3 127.1 325.3 127.1 325.3 166.9 356.1 166.9 356.1 159.5 334.5 159.5 334.5 150.3" style="" fill="#54584D"></polygon><path d="M388.5,134.3a12.75,12.75,0,0,1,10,4.7l5.9-5.5c-3.7-4.6-9.5-7.1-16.3-7.1-12.4,0-21.5,8.6-21.5,20.6s9.2,20.6,21.5,20.6c6.9,0,12.6-2.5,16.4-7.1l-5.9-5.5a12.75,12.75,0,0,1-10,4.7c-7.4,0-12.7-5.2-12.7-12.8C375.8,139.5,381,134.3,388.5,134.3Z" style="" fill="#54584D"></path><polygon points="411.3 134.6 424 134.6 424 166.9 433.2 166.9 433.2 134.6 445.9 134.6 445.9 127.1 411.3 127.1 411.3 134.6" style="" fill="#54584D"></polygon><rect x="456.5" y="127.1" width="9.2" height="39.9" style="" fill="#54584D"></rect><polygon points="497.4 155.5 485.3 127.1 475.4 127.1 492.5 166.9 501.5 166.9 518.7 127.1 509.6 127.1 497.4 155.5" style="" fill="#54584D"></polygon><polygon points="536.8 159.5 536.8 150.3 555.3 150.3 555.3 143.1 536.8 143.1 536.8 134.5 557.7 134.5 557.7 127.1 527.7 127.1 527.7 166.9 558.4 166.9 558.4 159.5 536.8 159.5" style="" fill="#54584D"></polygon><polygon points="56.7 28.5 28.3 56.9 0 28.5 28.3 0 56.7 28.5" style="" fill="#549DC0"></polygon><polygon points="85 56.9 56.7 85.4 28.3 56.9 56.7 28.5 85 56.9" style="" fill="#197F82"></polygon><polygon points="113.4 85.4 85 113.9 56.7 85.4 85 56.9 113.4 85.4" style="" fill="#F4C210"></polygon><polygon points="85 113.9 56.7 142.3 28.3 113.9 56.7 85.4 85 113.9" style="" fill="#E86A46"></polygon><polygon points="56.7 142.3 28.3 170.8 0 142.3 28.3 113.9 56.7 142.3" style="" fill="#DD8D98"></polygon></g></g></svg>